:FULLY-SPECIFIED
:FORCE-ALL-JOINTS-BE-3DOF
:DEGREES
388
root 9.54618 16.9214 18.3793 6.85335 1.97272 -5.03136
lfemur -37.6186 3.87927 -15.4368
ltibia 44.0209 0 0
lfoot -11.6064 10.8932 0
ltoes -6.5406 0 0
rfemur 0.816976 5.94056 30.5195
rtibia 16.9608 0 0
rfoot -13.0991 4.36515 0
rtoes -16.7993 0 0
lowerback -7.04289 1.46039 1.62209
upperback -0.777269 1.67396 3.08213
thorax 3.14847 0.841188 2.49802
lowerneck -19.78 -6.25367 -12.8773
upperneck 21.6209 -8.11692 12.9009
head 11.4025 -3.24662 5.63235
lclavicle -4.15145e-15 -3.54613e-14 0
lhumerus -49.6737 -14.5084 96.9754
lradius 27.7813 0 0
lwrist 9.62443 0 0
lhand -10.8256 -21.543 0
lfingers 7.12502 0 0
lthumb 15.1858 7.83946 0
rclavicle -4.15145e-15 -3.54613e-14 0
rhumerus -32.6625 15.9725 -85.4385
rradius 41.1688 0 0
rwrist -19.7334 0 0
rhand -30.1832 -24.1932 0
rfingers 7.12502 0 0
rthumb -3.49437 -54.1429 0
389
root 9.55892 16.9134 18.5201 6.88835 1.81691 -5.15656
lfemur -37.8592 3.78104 -15.3038
ltibia 43.1822 0 0
lfoot -11.4311 10.8605 0
ltoes -6.85527 0 0
rfemur 1.67819 5.93067 30.618
rtibia 16.2233 0 0
rfoot -12.742 4.48174 0
rtoes -16.7484 0 0
lowerback -7.12354 1.54791 1.7156
upperback -0.772683 1.77881 3.10545
thorax 3.19781 0.894296 2.48337
lowerneck -19.7577 -6.25311 -12.8953
upperneck 21.6189 -8.11595 12.9129
head 11.3987 -3.24707 5.64036
lclavicle -3.99418e-15 -3.51122e-14 0
lhumerus -49.8764 -14.268 96.9239
lradius 27.7261 0 0
lwrist 9.47072 0 0
lhand -10.6331 -21.5169 0
lfingers 7.12502 0 0
lthumb 15.3712 7.85102 0
rclavicle -3.99418e-15 -3.51122e-14 0
rhumerus -32.5679 15.8781 -85.498
rradius 41.0261 0 0
rwrist -19.5863 0 0
rhand -30.1442 -24.1879 0
rfingers 7.12502 0 0
rthumb -3.45669 -54.1382 0
390
root 9.57166 16.9054 18.6609 6.92334 1.6611 -5.28177
lfemur -38.0998 3.6828 -15.1709
ltibia 42.3434 0 0
lfoot -11.2558 10.8278 0
ltoes -7.16995 0 0
rfemur 2.5394 5.92078 30.7164
rtibia 15.4859 0 0
rfoot -12.3848 4.59833 0
rtoes -16.6976 0 0
lowerback -7.20418 1.63544 1.8091
upperback -0.768097 1.88367 3.12877
thorax 3.24715 0.947403 2.46872
lowerneck -19.7355 -6.25256 -12.9132
upperneck 21.6168 -8.11498 12.9248
head 11.3949 -3.24752 5.64837
lclavicle -3.83691e-15 -3.47631e-14 0
lhumerus -50.0791 -14.0276 96.8725
lradius 27.6708 0 0
lwrist 9.317 0 0
lhand -10.4407 -21.4907 0
lfingers 7.12502 0 0
lthumb 15.5565 7.86259 0
rclavicle -3.83691e-15 -3.47631e-14 0
rhumerus -32.4732 15.7837 -85.5575
rradius 40.8834 0 0
rwrist -19.4391 0 0
rhand -30.1052 -24.1827 0
rfingers 7.12502 0 0
rthumb -3.41901 -54.1336 0
391
root 9.58439 16.8975 18.8017 6.95833 1.50528 -5.40697
lfemur -38.3405 3.58457 -15.038
ltibia 41.5046 0 0
lfoot -11.0805 10.795 0
ltoes -7.48462 0 0
rfemur 3.4006 5.91088 30.8149
rtibia 14.7485 0 0
rfoot -12.0277 4.71492 0
rtoes -16.6467 0 0
lowerback -7.28483 1.72296 1.9026
upperback -0.76351 1.98852 3.1521
thorax 3.29649 1.00051 2.45408
lowerneck -19.7132 -6.252 -12.9312
upperneck 21.6148 -8.11401 12.9368
head 11.3911 -3.24796 5.65637
lclavicle -3.67964e-15 -3.4414e-14 0
lhumerus -50.2817 -13.7873 96.8211
lradius 27.6156 0 0
lwrist 9.16329 0 0
lhand -10.2482 -21.4646 0
lfingers 7.12502 0 0
lthumb 15.7419 7.87416 0
rclavicle -3.67964e-15 -3.4414e-14 0
rhumerus -32.3786 15.6893 -85.6169
rradius 40.7406 0 0
rwrist -19.2919 0 0
rhand -30.0662 -24.1775 0
rfingers 7.12502 0 0
rthumb -3.38132 -54.129 0
